/* XPM */
static char *c13acffb94d64712d902b61ce58f7f27yWskWLI2BzRjPNlO[] = {
/* columns rows colors chars-per-pixel */
"64 65 169 2 ",
"   c None",
".  c #2D1F18",
"X  c #36241C",
"o  c #38261D",
"O  c #3C2B23",
"+  c #43332C",
"@  c #473730",
"#  c #473830",
"$  c #4B3C35",
"%  c #4E413B",
"&  c #51443E",
"*  c #544943",
"=  c #5A4F4A",
"-  c #534742",
";  c #5D534E",
":  c #5E5550",
">  c #585759",
",  c #5B5A5C",
"<  c #7C554F",
"1  c #605651",
"2  c #645A56",
"3  c #645C58",
"4  c #695F5A",
"5  c #69615E",
"6  c #5F5E60",
"7  c #605F61",
"8  c #636364",
"9  c #6C6461",
"0  c #6F6966",
"q  c #676668",
"w  c #686768",
"e  c #6C6B6C",
"r  c #706864",
"t  c #746E6B",
"y  c #74706E",
"u  c #6F6E70",
"i  c #706F71",
"p  c #747374",
"a  c #797676",
"s  c #7D7875",
"d  c #777778",
"f  c #787778",
"g  c #7C7B7C",
"h  c #BE3317",
"j  c #BE3318",
"k  c #BF391E",
"l  c #BE3F26",
"z  c #C42C0E",
"x  c #C32E10",
"c  c #C33114",
"v  c #C3351A",
"b  c #C23A1F",
"n  c #C13C22",
"m  c #C83C20",
"M  c #BF4027",
"N  c #BE432B",
"B  c #AE4530",
"V  c #AF4E3B",
"C  c #B44934",
"Z  c #BC4B35",
"A  c #B54D39",
"S  c #BD4E39",
"D  c #AE513F",
"F  c #B7523F",
"G  c #B9523E",
"H  c #C04128",
"J  c #C7482F",
"K  c #C34A32",
"L  c #CB4F37",
"P  c #C3533D",
"I  c #CD5138",
"U  c #9A5C4F",
"Y  c #A55040",
"T  c #AF5341",
"R  c #AC5847",
"E  c #AB5B4C",
"W  c #A55B4D",
"Q  c #B55542",
"!  c #B95542",
"~  c #B75946",
"^  c #BB5946",
"/  c #B45C4B",
"(  c #BB5C4A",
")  c #9F6458",
"_  c #9C685E",
"`  c #96655C",
"'  c #AD6455",
"]  c #A3695D",
"[  c #AC6B5E",
"{  c #A46558",
"}  c #B36455",
"|  c #B16759",
" . c #B26A5C",
".. c #9C6D64",
"X. c #9F7067",
"o. c #9D736B",
"O. c #8E7A76",
"+. c #817D7C",
"@. c #8A7E7C",
"#. c #837775",
"$. c #947771",
"%. c #927A76",
"&. c #9E7B75",
"*. c #957E7A",
"=. c #9B7D78",
"-. c #A36D62",
";. c #AD6D61",
":. c #B26F62",
">. c #BC6F61",
",. c #A57066",
"<. c #AC7266",
"1. c #A5756C",
"2. c #AB746A",
"3. c #A6786F",
"4. c #AC786E",
"5. c #B47164",
"6. c #BA7466",
"7. c #B2756A",
"8. c #B2786D",
"9. c #A17871",
"0. c #AB7C73",
"q. c #C35D48",
"w. c #CC6B57",
"e. c #D36853",
"r. c #D6725F",
"t. c #D67B69",
"y. c #83807F",
"u. c #8D817E",
"i. c #92827F",
"p. c #99837F",
"a. c #B28279",
"s. c #7F7F80",
"d. c #848383",
"f. c #8B8584",
"g. c #8E8887",
"h. c #878788",
"j. c #888788",
"k. c #8D8A89",
"l. c #8C8B8C",
"z. c #8F8F8F",
"x. c #8D8C8D",
"c. c #8B8B8C",
"v. c #928583",
"b. c #998582",
"n. c #928886",
"m. c #978B8A",
"M. c #958D8B",
"N. c #938C8B",
"B. c #9B8D8A",
"V. c #9B8885",
"C. c #95908F",
"Z. c #9D918F",
"A. c #8F8F90",
"S. c #908F90",
"D. c #929292",
"F. c #959595",
"G. c #949394",
"H. c #989798",
"J. c #9E9D9D",
"K. c #9C9C9C",
"L. c #A98C87",
"P. c #A48F8B",
"I. c #A5928F",
"U. c #A8928E",
"Y. c #A49795",
"T. c #A99491",
"R. c #A09FA0",
"E. c #A2A2A2",
"W. c #ABABAB",
/* pixels */
"                                                                                                                                ",
"                                                                                                                                ",
"                                                                                                                                ",
"                                                                                                                                ",
"                                                                                                                                ",
"                                                                                                                                ",
"                                                                                                                                ",
"                                                                                                                                ",
"                                                                                                                                ",
"                                                                                                                                ",
"                                                                                                                                ",
"                                                                                                                                ",
"                                                              x z                                                               ",
"                                                            v c z z                                                             ",
"                                                            6.>.|  .8.                                                          ",
"                                                            Z.N.v.B.Z.                                                          ",
"                                                            x.d.d.G.G.                                                          ",
"                                                            D.D.G.H.G.                                                          ",
"                                                          -.] 2.0.o.o.                                                          ",
"                                                          A C C A A V N                                                         ",
"                                                          <. .;.<.<.7.<.                                                        ",
"                                                          f.@.+.+.@.M.M.                                                        ",
"                                                          p p f g g x.x.                                                        ",
"                                                          f g d.d.d.j.j.                                                        ",
"                                                        Y ) { ] -.,.0.[                                                         ",
"                                                K N H H N N Z Z Z S P K l M l N                                                 ",
"t.    K L                                         ;.[  .[ :.6.:.[ :.6.5.;.;.;.-.                                      x x     r.",
"e.v z v m c c J                                   f.+.f.f.k.f.f.d.g.N.f.f.f.j.x.                                z z x z z v c I ",
"w.k k n n n k P                                 p.v.v.n.N.S.n.f.n.M.N.f.N.M.n.=.                                M k h h j b k K ",
"a.] [ 5.5.;.] 2.                                ^ ;.<.0.2.8.:.[ 5.7.0.2.4.5.;.Q                                 ,.U ' | | -.-.,.",
"J.x.k.g a g N.k.                          C Z Z Z ! ~ / ^ ~ ! ! ! Q / ( ^ G ! Z Z Z C                           y.p y.p p j.N.x.",
"J.G.g , , 8 h.j.                          _ _ <.2.-.,.8.2.,.2.8.2.,.2.8.2.,.2.4.<.-.-.                          d p w , , p D.C.",
"J.z.p > > > d.c.                          y.s.g.g.j.z.F.c.g.z.z.j.j.N.D.c.f.x.c.c.c.c.                          p 8 , , > w A.z.",
"R.h.d q 8 q d.j.                          O.u.u.u.i.m.p.u.v.v.v.u.v.B.b.f.v.N.v.u.i.V.                          p , w 8 8 p h.z.",
"R.z.c.g g d.j.c.                      H D R W | <.[ :.} |  .:.:.[  . .} | ;.:.:.| | E R                         e p d.g f c.A.x.",
"J.H.R.d i c.j.c.                    A Z A F F ~ / F ~ G F F ~ / ~ Q G ^ ! ~ ~ ( ! F A F A B                     p h.z.p i K.J.A.",
"R.z.d.6 , w d.j.                    X.] 3.3.1.a.a.1.a.a.a.o.1.a.0.9.0.0.1.1.0.a.3.o.3.a.1.`                     p p i , , s.A.z.",
"J.h.i > > > d.c.                    f.c.J.G.s.g c.C.F.J.F.g g F.Y.G.c.d.g j.H.G.g g z.E.H.k.                    6 , , > , 8 d.z.",
"J.z.i > > > d.j.          n   K Z / %.G.E.c.w 6 g F.G.K.d.w 8 s.E.H.g 8 8 g c.g 7 8 g J.E.V.E                   , , , , > e c.A.",
"R.H.d , > , c.j.          K ^ q.( R %.H.E.d.8 > d z.G.K.d.8 , d K.G.p , 8 p j.p > , d R.R.p.W S G F C           , 6 , > > e G.A.",
"R.c.i > > > c.d           &.&.&.p.&.N.K.E.g 7 > i c.H.E.s.8 , d F.A.p 6 , p D.f , 6 f E.H.g.i.p.&.9...          e 6 , > , q c.x.",
"J.c.g w w e d ,           p d e f N.z.K.E.+.7 > p h.F.R.c.i e g G.c.g e p s.D.f , , f E.H.c.c.+.p x.k.          j.e e q q p h.x.",
"J.F.H.s.s.c.p <         ,.#.g 8 e z.z.H.E.d.8 > d G.F.J.E.F.z.y.+.s g D.K.G.D.p , 8 d E.E.H.z.d 8 l.f.          &.M.G.s.g K.G.A.",
"R.F.K.u e d.Y.F K N N J ~ $.N.8 e c.k.H.E.d.8 > d z.G.J.E.H.+.5 & & 1 g K.K.D.p > , p R.R.G.h.p 8 h.v.|   H H   T L.h.u w G.J.A.",
"J.c.d , > 6 g.E ( S S q.E %.c.q u h.D.E.E.g 8 > i c.J.E.K.f.: O o o + = #.K.E.g > , g E.K.A.h.p 8 h.v.{ ~ ! Z ~ R p.8 , , u j.A.",
"R.d.i , > > y.u.I.I.p.U.I.z.F.8 u z.D.K.E.d.7 > p c.F.E.u.2 + o o o o O ; y.K.g > 6 g E.K.D.z.d 8 l.M.B.T.p.P.U.i.d., > > q d.z.",
"E.c.p > > > z.g.K.d.p d.F.z.z.q w h.h.K.E.h.q > g F.F.J.y % o X o o o o + 5 F.g , 5 d E.E.F.h.i 8 j.x.D.h.p s.K.k.k., > > e x.A.",
"J.H.d , > > H.z.E.7 > 7 C.z.z.q e c.z.D.J.h.p u y.z.z.F.5 + X o o o o o + 2 N.d.w i s.F.G.A.c.p 8 j.x.A.e , 7 J.D.H., > , e H.A.",
"J.c.i > > > c.c.H.7 > 7 z.z.F.q i z.F.E.E.C.F.J.K.G.H.E.r # X X X X X X + 5 J.H.C.H.E.H.z.z.z.d 8 A.D.c.e , 7 H.h.j., > , q h.z.",
"R.d.u > > > d.h.R.i e u G.z.z.d g c.z.H.J.D.z.K.K.D.G.K.9 + X X X X . . O 5 z.H.F.H.H.F.z.z.c.g p x.x.D.f w i R.c.d., > > q d.z.",
"J.z.d 6 6 > z.g.H.R.J.R.F.c.H.W.W.F.c.H.E.J.F.H.E.J.F.z.5 # O o o O o O # ; s.K.E.J.F.R.E.H.G.W.W.K.c.G.E.K.J.K.c.A.7 , 6 e z.z.",
"R.z.s.u u e z.z.F.E.K.E.K.c.G.R.J.z.c.h.c.h.h.c.c.h.c.y : * & * % % % % & * 5 s +.+.g s.y.d.z.R.E.H.c.H.E.K.E.E.c.H.e i i g D.z.",
"E.u i u u w w s.e d.c.c.c.d.h.c.j.c.s.s.s.s.s.s.s.s.s.s.s.y y s.5 & ; 5 3 3 3 3 5 : 5 2 3 0 c.A.K.G.x.x.z.z.x.c.g c.p e u d d z.",
"W.u i i i w e e e d.h.c.h.c.c.h.j.j.h.c.c.c.c.c.c.c.c.c.g.c.c.c.c.c.c.h.c.c.c.c.c.c.c.c.x.x.x.x.c.x.A.x.x.z.z.z.z.z.c.i u d g E.",
"                                                                                                                                ",
"                                                                                                                                ",
"                                                                                                                                ",
"                                                                                                                                ",
"                                                                                                                                ",
"                                                                                                                                ",
"                                                                                                                                ",
"                                                                                                                                ",
"                                                                                                                                ",
"                                                                                                                                ",
"                                                                                                                                "
};
