/* XPM */
static char *_627634093015[] = {
/* columns rows colors chars-per-pixel */
"40 40 2 1 ",
"  c #F39200",
". c None",
/* pixels */
"........................................",
"........................................",
".................     ..................",
".............             ..............",
"...........    .........    ............",
".........   ..............   ...........",
"........  ..................   .........",
".......  .....................  ........",
"......  ......   ..............  .......",
".....  .....    .......   ......  ......",
"....  .....    ......       ....  ......",
".... .....    ......         ....  .....",
"...  ....     .....           ....  ....",
"... .....     .....            ...  ....",
"..  ....      .....            .... ....",
"..  ....      .....            .... ....",
".. ....       .....             ...  ...",
".. ....        ....             .... ...",
".. ....         ...             .... ...",
".. ....          ...            .... ...",
".. ....           ...           .... ...",
".. ....            ....         .... ...",
".. ....             ...         .... ...",
".. ....             ....       ....  ...",
"..  ...             ....       ....  ...",
"..  ....            .....      .... ....",
"... ....            .....     ....  ....",
"...  ....           .....    .....  ....",
"...  ....          .....     ....  .....",
"....  .....       ......   ...... ......",
".....  ......   .......   ......  ......",
".....   ..............   ......  .......",
".......  .....................  ........",
"........  ...................  .........",
".........   ...............   ..........",
"..........    ...........   ............",
"............              ..............",
"................       .................",
"........................................",
"........................................"
};
