/* XPM */
static char *_627747901734[] = {
/* columns rows colors chars-per-pixel */
"67 65 56 1 ",
"  c #5F890E",
". c #618C0F",
"X c #649500",
"o c #649600",
"O c #679800",
"+ c #679900",
"@ c #689B00",
"# c #689C00",
"$ c #6B9F00",
"% c #6C9F00",
"& c #669508",
"* c #67950D",
"= c #66940F",
"- c #68970A",
"; c #709D0E",
": c #6BA000",
"> c #6DA300",
", c #6EA300",
"< c #70A501",
"1 c #70A701",
"2 c #71A702",
"3 c #75A607",
"4 c #72A801",
"5 c #72A802",
"6 c #73AB02",
"7 c #74AA02",
"8 c #75AC03",
"9 c #77AF04",
"0 c #74A408",
"q c #76A708",
"w c #77A708",
"e c #76A808",
"r c #77A808",
"t c #78A908",
"y c #78AA08",
"u c #7BAC0B",
"i c #7CAE0B",
"p c #7BAD0C",
"a c #7CAD0C",
"s c #77B003",
"d c #77B004",
"f c #78B003",
"g c #78B103",
"h c #79B203",
"j c #78B004",
"k c #7AB304",
"l c #7BB404",
"z c #7DB00B",
"x c #7FB30A",
"c c #7FB10C",
"v c #7FB20C",
"b c #80B40B",
"n c #81B50B",
"m c #80B20D",
"M c #81B40E",
"N c #86BB0E",
/* pixels */
"r,:%:,,,,$,,,,5kd>>>>,:$$,,,>,:%,,,$o+,,::,,,:>1,>8d5,,>>>>>>>1,,$p",
"r,$,,,,,:$,,,,5d855>>>,,$,:,>,:,:,,$o$:,:,,:,,>>>258855>565>>>>>,$i",
"r,,,,:::,,$$>>:5588>5885>>,,>>,>5,:$::,,::,,#::,,,,16e665s65,$,:%,v",
"r,,:::::,,:$>>,,5865588>,,1>>>>55,$,:,,,::,:++:,,,,:6k,:6s5>$,$:$,v",
"q:%%$$,,,,$$,>,::5,1,1,$+,,,$,55d5,,,,,:,,,:::,>>>::,6,,,5:$:,,:,,p",
"q$$$$,,,,,,$,,,:::,>,,$#o:,:$,,8k5,,,>,,,,,,$:,,>>,:,:,,:,,$$,1,,,e",
"0$$,,,585:,,,::,$++,:,:o+:,:$,,8k5,,:565,,1,,:::>,,,,,,$,5$+$,588,p",
"q,,1,5885,,,::,,$+$,,,#++:,,$,:5s5,,:5d5>>,,5:,,>2,>,,:$:,$o$,1ks7i",
"p,8sd6655,,$:,::,::>>,:::,>>,,,,5>,:,,55,556s8,>$$,,,+#+:,$$:$18ksN",
"p5shd65>>>$:,,,555,,,,,>,,6>,,,,,,::$,,:,58dhs6>,,,,+o#$$$:,,$28skN",
"p5sh85>>>>,:,>5ds88,,>>>,886>2,,,,,$@$:,>>56ds5,2e2,+o#:$,$#$,,25dN",
"p58s5,,,>>,::,5dkhs5>>>56d82,,,,,,,$o@:,,:>168658s1,$o+$,,+o+,,,58m",
"e,555>,,:+$:,:>58sss6,26866$@$%,,:$+o#%,,::,556855,$:$$,,,:+$,,,,,v",
"e,:,,:::+o+,,:,>58kkj22kd6:+o@%,,:$$o+@%,>,,,166,,$$,,,,,,,$:,,,,$u",
"r,:::,,$+o+,$,,:,55ke,:d86$+o@,,,,:,::$$:,,,,555,,,$,:>>:,,,,$:,,,p",
"r,+o$,,,:o+$,,,$:,585,688,$+o$,%$$,:,,%$:,$,>>>>,,,,,,,,:66:,$$$,,v",
"r:$$$:,,:#$,:,,:::,,,$$155::#:%@+:>,,:,>,,+$:,,,,,,,551>1>585,,,,,r",
"0,,,$$,,,,,,1,,,$$$:$$%,>>,,$$%@o:>,:,>>,:oo#:,1$$,,6s6,5>6881>,,,p",
"r:,$%,:,556s5,>>,,,:$,,,1,>:$$$@+:>>,,1,,$o+$,,>,>,,558s5,,11,>>>>z",
"r,$$,,$$5dhk85>>:,,:$,,,>>>,,$$$$,,1>>>>$+++$,,:>,,:,,8s5::::,,1>>z",
"q$+$$,%,55dsk82,686,,:,,,,,,::,:,,:586,,,$$$:,,,,,,,:,55,,,,,,:$,,z",
"q$o++$,,,15sdkd62d86,,,:,,,::,,,,,,5sd5,,,,,::,:,::,>,>>,,,,::$$,,p",
"q+oo:,:,>>558h88e6,,,,,,,>,,,:,,>>,558852,,,,,,,:$,,>,,>,::+$:$,:,z",
"q#++::,,>>,,5kkk65,,,$$,,:,,,,:,51>>,8dd,:6:,,,,:$,,,::,,:+o++$,,,p",
"q,@@::,,:,,,,,6651,,,:,,,565>,,585,,,5d8,588,,,:,,$,#+:::,,::,,,,,z",
"t,%%:,,,:::,$$,,,,,:,>,,18d5>,>8h5::,5d615d8,$::,::$+o+#:,,:,:>,,,z",
"t,%%:>>>:$,,$$$::>,,>>>>555685,5h5:,>551,,55:,,,55,,$$::,,,6588>,,z",
"r,%%>5>,::,,,$+o#:,,,1>>>>>dd1,5d5::>>>>:::,,,,1685,,,,,:,,:6dd1,%i",
"r,,>585,,,585,+o+:,,,>,:,>>561>15,,:>,,:$$,,,,>55666881>>>56dk85,,p",
"p,,,sd6,,:8k8,:#+:,,>>,,:,,,>>,,:,,,:,,,$$,,::,>,16dkh6,>>6ksh6>,,z",
"3,,,56685>8k8,,:$$:55>>,,>>,,,,,,,,:,>>>,,$:#+:>>>56shs85>6kd851,,p",
"0$,,,58k6,8k85>>,,58s1>1,>>,:,:::::,>>>>,,$:o+,>11,,8hhk655s61,,,:p",
"q,:,,,155,555,:,>>56586>1>,,,$,$:$:,,,$$>>,:o+:,:,,,,68k6::6,,::$:p",
"r,%$,,:,,:,,,,,$,,,>5ss5,>,,,$$:$,,,,$o+>>>,++$,::,,:,6k8,,$,,:o#:z",
"r,:$,>>,:,$$$:,$,,>>5ss51555,,,#+$$,::$$,>>,+$:,>>:,:,666,:,$,$$$:v",
"r,,:,>>,>>$o+$:,>>,,5sd55ds5,,,+o+$$,,,,1>>>:$,,2,,:,,:::,,6,$$,,,v",
"r:,,>>585,,:$::,,>>>,55>>555>,:#o+::,565>>5>,,,,>>,,:>,,,,,::,,,,:p",
"q,>,,1ds6,,,,,,$:,,1:,,,,,>>,,:+o:,,>6sd5>>>>>2:2>::,>,,,:,,,,,::+3",
"r,5666881,:,,,:+:,>,,,,,:,>>>,,:$$,,,5hs85,:>>682:,,,,$$::,,:66:,:p",
"p5sksd5>>,,:,,:o+,,::,,,,:,>>,,>,,,,:5shk866:6886,,,::+oo$:,6d86:,z",
"k8hk865,,:$$$,$o+,::+$,,>,,>>1>>:,,:@,78kd,15856,,,,:$+o+:,,288655z",
"nkss5,>,,:$$,,$o+,:++$::>>>>>,>,$,,,$,,588,,8k1,,,$$,,$o:,,,,:6d85M",
"nk8861>1,,:,,::#::::+$,,,,>555,>:,,,,:,,21,,85>,,,::,$$+$:,%,,2d85M",
"x85,>>>,>>>>,,:::,,>,,,$:,5dd8,>,,:,,,::%,,,>2>,$$,,:$:,$$$$,,5dd,M",
"p6,,>>>,,,,>565>:,,,,,,:,>18kd62>>,555,:%,,,,,:,,,$$$$,,,:$$$,:65:v",
"r>:,,>:,,,>>6d8>,,,,$,,:,1,8dk861>,6d61>,,,,:::,,:+o+:$,,,+o$:5,,:p",
"r,,:>>,:,:>,8s8>>55,:,,,>>,58dk6,55885,,,,,,,,,,:,$+:,,1,>:#:,,>,,p",
"r:,>>>,,,,>,5h855d8>,:,>>5,,1886:5d6,,,,%%,,,,,,,,,,>>,>>>:,$:,>,,z",
"q:$$:,:::$,,585,:67,,,,$$$,,>686,681,,::,>>1555>,,,,5>555,>>>>,,,,z",
"r,++$,+++$,,,1,:$,,,,,:+o$$,>>,:,,2,,,,,>>>5ss5,:,,,,,8d8>1>>>,:$,z",
"r:$+$,#o+$,:,,,$$$$,,,::+$$,,,:6:,,,::,,>>>5665561>>,5dk8>>>,,::$:z",
"r,,,$:+o$,,,,$:,,,,,:,,,,,,$,>,>,,$#o#$$>>,,158sdd8>5kkk611>:,#o:,z",
"t,,,:::#>>>,:,,,,,::,55,,,1,:,,>,:$$#::,1>,,::5sdd6>8dd5>,>>,::+::p",
"r,:,:,>>>>>,,,,,,::,5d85,,>>>,,:,,$$,>,,,,::::,56s558h5,,:,,,,,,:,p",
"r>,,>5:,>>555,:55,,,,8k75,,>>662,,$,,>,,:,,::::1565>55,:::,,,,:::,u",
"p,,>6d5,,18d655d6,,,,8kd85>12886,,,,,:,,$:,:+#:>15,,,,,::,,,,:,,,,i",
"y,55555>>16ks5885,,$,18kd5557e71:,:626,,,,,::$,>,,,,,%%@$:,:,5,>,,v",
"r5885,,,>>6dks85,,,,%25d811881,%$,,6d8,:>>>>,:>,,,::%,@o:,,,5d81,,p",
"p6dd5,>1>>58sk8,,,,:,,,655,5h1::+:,6d866555>,,55,,,$,,@o#,,,5885,,v",
"xskd,,>>>,>56h6,$$$:$,,2,,,,1,,+o:,,5888d81>,:8d5,,:,,@o#$,,,56d85v",
"nhs8,,,>,:,,565,:,:+:,>>,,:,,,,$o$,,:58dk85>58885>,:$,$++$:,,>6s85M",
"n88,,:,,,:,,,,,,:,:++,1>,1,,,$$$,$:,,,56d8158855,>:+$:$:,:,,,>5s85v",
"v65,,::,,,,,:::,,,:##:>55,,,,$$$,:::>,>>81>,88:,,,:++:,,,,:::,555,v",
"d5>,,,:,,:,::::,,::,::5885,:$$$,,,:,>,,>22,,15,:::::,,::,,,,,,,,,,v",
";-**==. &,,:#$$,,$$,,,5dd5,,$$$$,,$$,,$$,,$$,,:$$$,,,,:$:,,:,,:::,z"
};
