/* XPM */
static char *_627748132870[] = {
/* columns rows colors chars-per-pixel */
"65 66 126 2 ",
"   c #7F9047",
".  c #7C8D46",
"X  c #7B8D46",
"o  c #7E9047",
"O  c #809248",
"+  c #7F9147",
"@  c #7D8E46",
"#  c #7B8C46",
"$  c #7D8F47",
"%  c #7F9148",
"&  c #819349",
"*  c #86984E",
"=  c #8B9D53",
"-  c #889A50",
";  c #83954B",
":  c #7A8B45",
">  c #809148",
",  c #748541",
"<  c #788A44",
"1  c #7E8F47",
"2  c #7B8C45",
"3  c #82944B",
"4  c #86984F",
"5  c #889A51",
"6  c #84964E",
"7  c #7C8E46",
"8  c #7D8E47",
"9  c #85974D",
"0  c #899B51",
"q  c #879950",
"w  c #84964C",
"e  c #82944A",
"r  c #7F9048",
"t  c #7E8F48",
"y  c #7A8C45",
"u  c #768743",
"i  c #81934A",
"p  c #84954D",
"a  c #869750",
"s  c #85974E",
"d  c #83944B",
"f  c #86974E",
"g  c #798B45",
"h  c #809149",
"j  c #81924B",
"k  c #85964F",
"l  c #7D8F46",
"z  c #809249",
"x  c #83954C",
"c  c #85974F",
"v  c #778843",
"b  c #788943",
"n  c #84964D",
"m  c #7F9149",
"M  c #82934B",
"N  c #80914A",
"B  c #7E9048",
"V  c #7E8F46",
"C  c #768742",
"Z  c #87994F",
"A  c #8D9F56",
"S  c #83944C",
"D  c #7B8D45",
"F  c #8B9D55",
"G  c #80924A",
"H  c #85964E",
"J  c #788944",
"K  c #879951",
"L  c #778943",
"P  c #788A43",
"I  c #899B53",
"U  c #82944C",
"Y  c #86974F",
"T  c #7D8F48",
"R  c #7C8E47",
"E  c #768843",
"W  c #85964D",
"Q  c #8B9C53",
"!  c #8A9C52",
"~  c #81924A",
"^  c #798A44",
"/  c #889A52",
"(  c #8B9D54",
")  c #8D9F55",
"_  c #8A9C54",
"`  c #8C9E56",
"'  c #758642",
"]  c #869850",
"[  c #8C9E54",
"{  c #798B44",
"}  c #8A9C53",
"|  c #82934A",
" . c #8EA056",
".. c #899B52",
"X. c #738541",
"o. c #778844",
"O. c #7A8B44",
"+. c #8C9E55",
"@. c #748542",
"#. c #738441",
"$. c #798A45",
"%. c #7C8D45",
"&. c #83954D",
"*. c #7E9046",
"=. c #7F904A",
"-. c #889951",
";. c #81934B",
":. c #758743",
">. c #748642",
",. c #82934C",
"<. c #7D8E48",
"1. c #7C8D47",
"2. c #7F9049",
"3. c #758742",
"4. c #82944D",
"5. c #84954C",
"6. c #819249",
"7. c #879850",
"8. c #83944D",
"9. c #87984F",
"0. c #7E9049",
"q. c #7E8F49",
"w. c #7A8B46",
"e. c #869851",
"r. c #83954E",
"t. c #84954E",
/* pixels */
"  . X o O O + @ # $ % O & * = - ; O O o X : : # o O O > @ : $ O O O : , <   1 2 . + O O O O O O 3 4 5 6 & O O O O O O O O O O o X ",
"+ @ . 1     o 7 . 8   > & 9 0 q w e & O r t 8 @ o O O O 1 X 1 O %   y u : % o 2 . + + o o % O O i p a s ; & O & e e & O +     1 . ",
">   1 7 . . 7 $ 1 @ @ 1 O e w * 4 9 e d f s i o % O O O % o % O o . . 7 o O o 2 . + $ g : $ O O h h j k q 9 e w - * &   @ . . 7 1 ",
"+ + o X : 2 . 1 + @ 2 l % % z x 4 c 3 ; - 5 e o + O % % > O & e r # $ O > % $ X 8 % l v b @ O O   @ $ n 0 * ; * 0 4 z 1 . # # . o ",
". . . 2 2 @ o % + @ 2 l % o $ m M 3 & & ; e X g l O o 7 o O 9 0 x o + O o 7 @ 1 + O $ g : $ O O   @ . N x e & ; x i 1 @ 1 o o $ @ ",
": 2 2 2 . B & O % $ X 8   l X 7 V   % O % 7 v C X % . y $ & Z A Z O O % 1 8 1 % O O   . . o > O + $ . 1 % O % % % $ y .   & & z 7 ",
"2 @ 1 1 m S s ; & + $ @ @ $ @ D y D o % 8 : C C X % . y $ & 4 F * O o 7 G H S t o % + o $ 7 $ % % % o + O o @ o o . J : + ; Z f z ",
". % & & ; 4 K w & O + l X $ o D L P l o X < u v . % @ 2 $ z s I n O $ 2 U = Y T $ % & & % R . o O O O O B 7 2 @ 1 D E < o W Q ! w ",
"z 9 q 4 s s w e z o @ $ 1 r % $ 7 7 o o X : : . o O   $ + O 3 n ~ @ @ $ i 9 x r z n 4 - 9 G $ @ 1   r . : ^ : D 7 . 2 D $ 3 / ( 0 ",
"; ! ) ( 5 w & O + @ 2 l % O & & & O O o . .   O O O O O O O O O $ : @ % O O O O x 5 _ ` ! w % 7 R 1 $ ^ ' u ^ : 2 7 o $ . N ] ( ) ",
"; ! [ - n 3 O O + @ 2 l O ; * Z Z 9 e % o o + & 9 * e O O O O O   $ X { 7 %   $ m x q } 5 x | S S M o ^ ' u : . @ . y y 7 m x q } ",
"; ! = 9 & O O O + @ 2 l z * [  .) 0 ; O O O O ; 0 = 9 O O O O O O O : , <   1 2 . + ; K q ; ; 0 ! * % ^ ' u : @ o 2 C J $ O O ; 5 ",
"e 9 * e % o @ 2 y X @ $ B e * ..} } - 9 e e 9 Z Z s m y . $   O   $ < X.o.. $ @ o % i n s s H H S G $ # : D l o o 7 J y o O O & U ",
"O & & O + @ O.v u : o l X 8 z 9 ..( +.0 w ; 0 ! 9   ^ @.v y $ O $ : v #.u $.. r O O O z x q ] N . # 2 @   % O O % $ 2 @   O O   . ",
"+ 7 . o % 1 %.v ' ^ 7 @ @ $ B ~ H 5 } 5 M M ..= d . v , ^ @ $ $ @ @ 2 ^ ^ : . $   > O O i n &.h @ @ @ @ $ + O O O + $ @ $ $ $ $ @ ",
"l L v . > O *.< ' v y 8   l X $ z n 5 a =.=.-.} ;.$.:.>.2 % @ 2 $ % % + @ : : 2 @ + O O O & z O % % r 8 X $ % O O O > 1 . 2 2 . o ",
"7 : { 7 o % o : b ^ . 1 % $ D X $ m ,.j <.T n 4 ~ # J v : 1 y o.. O + 1 $ 7 7 7 . D 7 $ o > % o   + O z G z O O & e w | B 7 7 @ $ ",
". $ $ . . 1   7 y 7 B O % $ 2 2 2 # . 1.# . h i z o # ^ : 2 v @.: O 1 2 @ + % % . v v ^ . o o 7 7 1 i H 4 n & O & 9 ! Z e % % o . ",
"7 $ 1 @ 7 $ B 2.N U w ; z o 7 . . . 2 : X l + O O > 1 . 2 : J ' 2 O o . o O % o y 3.C : 8 % + l $ o z n 4 * w i z 3 c n | O O + @ ",
"o . . 1 o 7 T 4.K I ! * e % + + + $ X D V + > O O O %   7 : $.^ 7 O % + % O o . ^ ' v 7 % O > % % % O & ; Z 0 p 8 . <.B > O O O % ",
"@ : g 7 1 7 t S q } ( 5 9 e & e ; i o l + O + o % O % o @ . . . o O e w e O o 7 : J ^ @   O % o + + O O & 9 Z x $ . . 7 1 o o + O ",
": E u g . 1 % i ; q } = ! * e w - 4 i + % % 8 @ o % $ . $       % O 9 ! Z & %   o l 7 . 8 r   @ 8 o % O O e ; & %     1 . X X @ + ",
"J ' ' ^ . o O O & n K } [ 0 9 * - Z e O % 1 @ @ o > 1 . $   % O O O 9 ! Z w e O O O + @ 8 r   . . $ % % + % O > + o l . 2 : # @ + ",
"J ' C y o > O O z i x q } } ..Z 9 ; & r 8 7 $ o % O % o @ . o O O O e w Z ! Z e O O % o % O   . . $ % $ 7 o % 1 X : b J $.# $ + O ",
": u v # r O O % % O & x ] ..! Z e O % 1 @ @ + O & e & O $ X % ; & + % O 9 [ - e & e e O + + o 7 @ l 1 X : . 1 8 # $.v b : @ + O O ",
"@ g ^ 2 @   % $ @ 1 > m N M 5.; & r 8 7 $ o % i 6 c 3 O + + w 0 S . o O n } q e ; - f 2.. . @ 1 $ $ X J v ^ %.@ 1 $ 7 @ 1   > O O ",
"  . : 2 . 1 + @ # $ % 8 2 . 1 % % o 7 7 + O O e 4 K n e 6.z 4 A p : @ O w K s 6.w 0 7.m X 2 @ > O 1 2 J u J : @ + O O & e e O O % ",
"  . 2 @ o % + @ # $ % 8 2 ^ ^ D o >   o % O O & 3 9 Z Z i 1 6 F 8.: @ O e w i 1 % 5.; % 1 1 h &.n i o @ . 2 2 @ + O & w Z * e + $ ",
"+ . 7 > & O + l . o z t # J ' J @ % O O O O O % O e - = 3 1.U I ,.2 @ % O O o 2 . + O % O O e 4 q n e & & o . $ % O e * = 0 ;   . ",
"% o z n Z ; O o % x * x B ^ ' v 2 V + O O % 1 l o & ; n i 1 i n i 1 $ 7 o O o 2 . + + V 1 % & ; 9 s 4 q 9.d %   6.w q ..( q ; % o ",
"O O ; - = * e O & Z = Z & y E v $.7 % & O   . . o O O O O O O O O O $ 2 $ O o D @ o o # X o O O e 4 I [ = Z e & & * = +.} 4 e O O ",
"1 % & 9 Z Z * ; e Z = Z i $ D X $ z x n i % o o + O o @ o O o @ @ @ @ $   O + $ $ @ 2 J { l O O & ; s ..( ..Z w e 9 ! ..4 x & % 1 ",
". o O O ; 5 = * ; Z ! Z e O O O O x K K ; O O O O % . y $ O @ : : : @ O O O O O o . J ' v 7 O O O O i s I +.[ Z 3 n 5 4 e O O o X ",
"$ @ 1 % & d x i & w * ; 6.  $ o O e n s 4 9 e O O O o $ @ @ X : . @ o O l y . %   1 y C v 7 + o o + z ;.&.K I 4 | ~ ,.;.z o D y 7 ",
"o . X o + @ . 1 % O O O % $ D @   O & w ! = w O O O O > @ : : : @ O O O D ' P o O O 7 u v 7 o . . $ % 8 <.8.-.* & $ X @ + X u v l ",
"  . X o % 1 $ + + l D . $ @ $ o + O O x 5 ..x & w 9 e O o @ : v : $   O @ O.X % O O $ ^ { l + o o + O o B i n ; O + $ @ $ 7 : 2 o ",
"  . X o O O O O + : u v : 8 % O O O O ; q K x ; - = 9 O O B { , v : $ O O % > O O O o # X o O O O O O O O O z z O O O $ X . o % O ",
"% $ $ + & ; 9 ; O . O.: . $ o % % O O e n n z > W Z ; O   8 J #.J 7 o O ; * w & O O + V 1 % O O % % o + O O O % o o > + $ $ %   7 ",
"O > % O ; - ! 9 & + + %   l X $ + O O O & > R 1.% & & O $ y v #.{ % O O 9 = - e O O O % O O O O + $ . 1 % O % $ . l + O % > O l L ",
"& w 9 n 9 Z Z w & + o % + @ O.2 o >   o % % $ 7 $ o % O o . : J 7 O + 1 n ( } Z w & O O & w w e > 1 @ @ 1 @ . 2 2 @ + & ; ; & o : ",
"; 0 = I q s 3 & O 1 . $ o y v ^ $ o 7 7 + O % o @ . o O > % o o + O 1 # ;.I ( [ - ; O O ; 0 0 w O O r 8 2 J u b : @ O w q * e % o ",
"4 = ( / c ; O   1 7 2 l o y u < l $ : g 7 o % % 1 7 o O O O % o % O $ : 2.c / F q i z ; 9 Z f d O % o $ 2 v ' o.X $ O ; s 4 9 ; & ",
"= ( ..s e & % l %.: 2 l o y u < l 7 v E g @ + O % + % O O O 1 # 1 O $ : t i s I c 0.G q q ,.2.> + $ . l @ ^ C ^ 1 % O & e 9 0 - ; ",
"[ ..4 3 O O % $ 7 . 7 $ o 2 L g l l ^ J 2 7 $ o % O e w e O 1 . 1 O o . @ o ~ 6 U T N 9.* h @ 1 $ 8 . l $ 2 < y l o o + & 9 ! ..; ",
"..s e & O O O +     + % + @ : X o % o l o 1 @ @ + e Z 0 w O %   % O %   $ . 8 q.B o > e e z o 7 @ l o 8 . . @ 7 . X X l z n ..5 ; ",
"Y i + O O % + > O O & e e z 8 $ + O % + % % 8 @ + e - [ Z ; e O O O e ; h @ X X $ % % + % O + @ . . @ X 2 8 % $ X y ^ %.% 3 4 c i ",
"i 1 @ + % $ @   > O & 9 Z n z % % r $ l + O + o % e q ( = ! 9 O O O 9 ! s h o o % O + @ 8 % % o 7 : J ^ 2 8 % % 1 y v g o & 3 i $ ",
"o . 7   + l . 1 r O & Z } q e & e z $ 7 o + > O O i s / ( [ * + & ; 4 } 4 & % + % O + @ 8 r O O o : v < 2 1 % O + %.L { l % O   7 ",
"7 $ o % O   1 @ @ 1 & s ..4 3 w Z s z 1 @ l + O O O e 9 5 } &.. S 0 s j z O o 7 1 % % o + O O O + $ 7 @ 1 + O O O o 7 . . $ % % o ",
". $   % O + $ X # $ z n q W | w - q 3 o . . l o + % O & s K ,.# &.[ n 1.$ O o . 8 % & e & O O % % % O O O & e & O O O 1 . . o % O ",
"7 : : 1 o D < $.w.$ O e x i 1 r G i 6.> o 7 g { y 7 o O e w ~ 1 | 9 | o + O + 1 + O ; Z * ; > V 1   > O & w Z 9 & O O % o $ @ $ % ",
"l L v X l J ' o.2 $ % O + l D 2 2 . o % O l b u ^ D $ % O O O O O % % + % % O O O O ; ! 0 w z 1 $ o % O ; - = Z & O O O > 1 2 # o ",
"+ 7 2 . 2 v ' { l % % o @ $ $ $ $ $ @ V     7 D 7 $ @ @ o O O O o @ 2 ^ y 7 o O O O e w * 4 Y Y n 3 e 9 - } } 4 & O O + $ 2 L ^ 1 ",
"O O o . ^ v u 2 + O % $ X 8 % O O o . 7 % & O O O % @ 2 $ O O O @ : v , v : . % O O O O ; ] } +.= * ; - [ F ..s & O O $ # J ' v l ",
"% 1 @ $ 7 2 D $ % O >   1   O + 1 @ $ z n * e O O O o $   O O O @ : : : X $ o O   1 @ @ % 3 4 } ..9 ; 4 I ] U 2.1 1 % % 1 7 2 2 7 ",
"  . X o O O O O O O O O O O % $ . . % w ! = w O O O O O O O O O $ : @ O O O O O o X : : X o 3 q K n 3 * e.,.. : 2 @ + O O O O o X ",
"% 1 r S n 3 O O & w * ; & ; 9 S r @ 1 M 5 ( - 9 e O O & w Z ; O o @ o O O O   $ $ @ D J { $ & w w 3 & ;.j q.# D l o % % 1 o % % 1 ",
"O O e 4 5 w & O & Z ! Z ; * = - 3 o 7 =.] ( +.= 9 O O e - [ Z O O O O O O O o D @ o 7 u v 7 O O O O % $ # : 2 @ + O O $ X .   O O ",
"& 9 s 6 U i O O & 4 } ..Z Z Z 9 i o . <.S q } ..n & w * f s i $   O ; * ; O o @ o % o y 2 1 O O % r 1 $ . : ^ # + O O i U 3 & % o ",
"; 0 ..;.$ o O O & * } +.( Z ; O O o . 7 % x q 0 w e - = S . # 2 $ O * [ - & O > O O O + % O O O + 8 X l $ g v : + O & 9 ! - ;   . ",
"Z = ..3 o + > o % 3 4 ..} 4 z 1 1 R X . r e n 6 G % W Z i 7 : v . O w - 4 n 9 9 ; & O O & w w e > 1 @ o $ g C J @ o 6.w Z - * x r ",
"[ ( 5 x % O + l . o e 4 / r.T 2 2 2 : .   O & O 8 . > e z o { @.: O & e s 5 } [ - ; O O ; 0 0 w O O % > o g ' v : l + & e * ! 0 3 ",
"( 5 H ~ o % % $ @ 1 O 3 &.;.$ . . # $.: 1 O O % 1 7 o O + 1 2 b 2 1 + O x 4 5 ( - ; e ; * - Z ; % $ 7 @ 8 2 ^ : . @ 1   6.9 ! ..; ",
"..n z 8 . 1 O % % O % B <.t + +   X v L l O O O % % > O $ # 7 o 7 # $ O & e s I q 3 w 0 0 9 e O o : v J 2 7 $ o   1 . l O n / 5 ; ",
"s e % $ 7 $   % O + o 7 2 @ % + o . $.: $ & ; ; e O + o . : $ O @ : @ O % o i c n h M Z * i o o 7 : J : . @ o + >   @ @ 1 G t.n i ",
"e & O % o 7 7 o % 1 . y 2 @ r o 8 . 7 o O ; Z 0 w % 8 # 2 : $ O @ : @ O 1 X T i O 8 1 i i 1 X X . 7 l o o 8 . 1 % O + 1 . . <.B % "
};
