/* XPM */
static char *_627591959426[] = {
/* columns rows colors chars-per-pixel */
"64 64 68 1 ",
"  c #B27E02",
". c #CD6A00",
"X c #D66400",
"o c #D66401",
"O c #D66501",
"+ c #D66603",
"@ c #D66604",
"# c #DA6F0C",
"$ c #DB7513",
"% c #DC7A18",
"& c #DD7A18",
"* c #59BE05",
"= c #7AA604",
"- c #6BB105",
"; c #6BB205",
": c #0DF508",
"> c #00FF09",
", c #01FF0A",
"< c #02FF0B",
"1 c #07FF0D",
"2 c #12F208",
"3 c #0EFE11",
"4 c #24E508",
"5 c #20FC1A",
"6 c #23FC1C",
"7 c #25FC1D",
"8 c #2AFC1F",
"9 c #2BFC20",
"0 c #4CED27",
"q c #40FA2B",
"w c #47F92E",
"e c #55F836",
"r c #7EF44D",
"t c #7FF44D",
"y c #8F9803",
"u c #949403",
"i c #9D960A",
"p c #A98402",
"a c #A18B02",
"s c #A4960E",
"d c #81A204",
"f c #ABAD28",
"g c #CE9225",
"h c #D59128",
"j c #E39030",
"k c #E49030",
"l c #E79B3C",
"z c #E9A344",
"x c #EBA648",
"c c #EBA84A",
"v c #ECAC4E",
"b c #EDB053",
"n c #EEB154",
"m c #EEB255",
"M c #F1BC60",
"N c #94F258",
"B c #9FF15D",
"V c #BEEE6E",
"C c #BFEE6E",
"Z c #BFEE6F",
"A c #B0F067",
"S c #C1D256",
"D c #F8D379",
"F c #CFED77",
"G c #D4ED7A",
"H c #FCDE85",
"J c #FFE991",
"K c None",
/* pixels */
"KKKKKKKKKKKKKKKKKKKKKKKKKKKKKKKKKKKKKKKKKKKKKKKKKKKKKKKKKKKKKKKK",
"KKKKKKKKKKKKKKKKKKKKKKKKKKKKKKKKKKKKKKKKKKKKKKKKKKKKKKKKKKKKKKKK",
"KKKKKKKKKKKKKKKKKKKKKKKKKKKKKKKKKKKKKKKKKKKKKKKKKKKKKKKKKKKKKKKK",
"KKKKKKKKKKKKKKKKKKKKKKKKKKKKKKKKJJJJKKKKKKKKKKKKKKKKKKKKKKKKKKKK",
"KKKKKKKKKKKKKKKKKKKKKKKKKKKKKKKKJJJJKKKKKKKKKKKKKKKKKKKKKKKKKKKK",
"KKKKKKKKKKKKKKKKKKKKKKKKKKKKKKKKJJJJKKKKKKKKKKKKKKKKKKKKKKKKKKKK",
"KKKKKKKKKKKKKKKKKKKKKKKKKKKKKKKKJJJJKKKKKKKKKKKKKKKKKKKKKKKKKKKK",
"KKKKKKKKKKKKKKKKKKKKK>>>>>>>>>>>ZJJG9>>>KKKKKKKKKKKKKKKKKKKKKKKK",
"KKKKKKKKKKKKKKKKKKKKK>>>>>>>>>>>ZJJG8>>>KKKKKKKKKKKKKKKKKKKKKKKK",
"KKKKKKKKKKKKKKKKKKKKK>>>>>>>>>>>ZJJG8>>>KKKKKKKKKKKKKKKKKKKKKKKK",
"KKKKKKKKKKKKKKKKKKKK>>>>>>>>7qqqFJJG8>>>KKKKKKKKKKKKKKKKKKKKKKKK",
"KKKKKKKKKKKKKKKKK>>>>>>>>>>>NJJJJJJG8>>>>>>>KKKKKKKKKKKKKKKKKKKK",
"KKKKKKKKKKKKKKKKK>>>>>>>>>>>NJJJJJJG8>>>>>>>KKKKKKKKKKKKKKKKKKKK",
"KKKKKKKKKKKKKKKKK>>>>>>>>>>>NJJJJJJG8>>>>>>>KKKKKKKKKKKKKKKKKKKK",
"KKKKKKKKKKKKKKKKK-----------SJJJJJJG8>>>>>>><><KKKKKKKKKKKKKKKKK",
"KKKKKKKKKKKKKKKKKXXXXXXXXXXXbJJJJJJG8>>>>>>>>>>KKKKKKKKKKKKKKKKK",
"KKKKKKKKKKKKKKKKKXXXXXXXXXXXmJJJJJJG8>>>>>>>>>>KKKKKKKKKKKKKKKKK",
"KKKKKKKKKKKKKKKKKXXXXXXXXXXXbJJJJJJG8>>>>>>>>>>KKKKKKKKKKKKKKKKK",
"KKKKKKKKKKKKKKKKKMMMMMMMkXXXmJJJteew3>>>>>>>>>>KKKKKKKKKKKKKKKKK",
"KKKKKKKKKKKKKKKKKJJJJJJJxXXXmJJJq>>>>>>>>>>>>>>KKKKKKKKKKKKKKKKK",
"KKKKKKKKKKKKKKKKKJJJJJJJxXXXmJJJq>>>>>>>>>>>>>>KKKKKKKKKKKKKKKKK",
"KKKKKKKKKKKKKKKKKJJJJJJJv###bHHH0222222:>>>>>>>KKKKKKKKKKKKKKKKK",
"KKKKKKKKKKKKKKKKKJJJJJJJDMMMzjjjsyyyyyu;>>>>>>>KKKKKKKKKKKKKKKKK",
"KKKKKKKKKKKKKKKKKJJJJJJJJJJJlXXXXXXXXXXa>>>>>>>KKKKKKKKKKKKKKKKK",
"KKKKKKKKKKKKKKKKKJJJJJJJJJJJlXXXXXXXXXXa>>>>>>>KKKKKKKKKKKKKKKKK",
"KKKKKKKKKKKKKKKKKJJJJJJJJJJJlXXXXXXXXXXp4442>>>KKKKKKKKKKKKKKKKK",
"KKKKKKKKKKKKKKKKKJJJJJJJJJJJlXXXXXXXXXX.   *>>>KKKKKKKKKKKKKKKKK",
"KKKKKKKKKKKKKKKKKJJJJJJJJJJJlXXXXXXXXXXXooo;>>>KKKKKKKKKKKKKKKKK",
"KKKKKKKKKKKKKKKKKJJJJJJJJJJJlXXXXXXXXXXXooo;>>>KKKKKKKKKKKKKKKKK",
"KKKKKKKKKKKKKKKKKJJJJJJJJJJJc&&&&&&&&&&$ooo;>>>KKKKKKKKKKKKKKKKK",
"KKKKKKKKKKKKKKKKKKKKKJJJJJJJJJJJJJJJJJJJKKKKKKKKKKKKKKKKKKKKKKKK",
"KKKKKKKKKKKKKKKKKKKKKJJJJJJJJJJJJJJJJJJJKKKKKKKKKKKKKKKKKKKKKKKK",
"KKKKKKKKKKKKKKKKKKKKKJJJJJJJJJJJJJJJJJJJKKKKKKKKKKKKKKKKKKKKKKKK",
"KKKKKKKKKKKKKKKKKKX@ftttttttttttttttttttKKKKKKKKKKKKKKKKKKKKKKKK",
"KKKKKKKKKKKKKKKKKXXXy>>>>>>>>>>>>>>>>>>>KKKKKKKKKKKKKKKKKKKKKKKK",
"KKKKKKKKKKKKKKKKKXXXy>>>>>>>>>>>>>>>>>>>KKKKKKKKKKKKKKKKKKKKKKKK",
"KKKKKKKKKKKKKKKKKXXXy>>>>>>>>>>>>>>>>>>>KKKKKKKKKKKKKKKKKKKKKKKK",
"KKKKKKKKKKKKKKKKKXXXgZZZZZZZZZZZZZZB5>>>>>>KKKKKKKKKKKKKKKKKKKKK",
"KKKKKKKKKKKKKKKKKXXXjJJJJJJJJJJJJJJG9>>>>>>>KKKKKKKKKKKKKKKKKKKK",
"KKKKKKKKKKKKKKKKKXXXjJJJJJJJJJJJJJJG9>>>>>>>KKKKKKKKKKKKKKKKKKKK",
"KKKKKKKKKKKKKKKKKXXXjJJJJJJJJJJJJJJG9>>>>>>>KKKKKKKKKKKKKKKKKKKK",
"KKKKKKKKKKKKKKKKKXXXjJJJJJJJJJJJJJJG8>>>>>>>KKKKKKKKKKKKKKKKKKKK",
"KKKKKKKKKKKKKKKKKXXXjJJJJJJJJJJJJJJG8>>>>>>>KKKKKKKKKKKKKKKKKKKK",
"KKKKKKKKKKKKKKKKKXXXjJJJJJJJJJJJJJJG8>>>>>>>KKKKKKKKKKKKKKKKKKKK",
"KKKKKKKKKKKKKKKKKXXXhGGGGGGGGGGGGGGA6>>>>>>>KKKKKKKKKKKKKKKKKKKK",
"KKKKKKKKKKKKKKKKKXXXi9998888888889861>>>>>>>KKKKKKKKKKKKKKKKKKKK",
"KKKKKKKKKKKKKKKKKXXXy>>>>>>>>>>>>>>>>>>>>>>>KKKKKKKKKKKKKKKKKKKK",
"KKKKKKKKKKKKKKKKKXXXy>>>>>>>>>>>>>>>>>>>>>>>KKKKKKKKKKKKKKKKKKKK",
"KKKKKKKKKKKKKKKKKoooy>>>>>>>>>>>>>>>>>>>>>>>KKKKKKKKKKKKKKKKKKKK",
"KKKKKKKKKKKKKKKKKoooy>>>>>>>>>>>>>>>>>>>>>>>KKKKKKKKKKKKKKKKKKKK",
"KKKKKKKKKKKKKKKKKoooy>>>>>>>>>>>>>>>>>>>>>>>KKKKKKKKKKKKKKKKKKKK",
"KKKKKKKKKKKKKKKKKoooy>>>>>>>>>>>>>>>>>>>>>>>KKKKKKKKKKKKKKKKKKKK",
"KKKKKKKKKKKKKKKKKooo=>>>>>>>>>>>>>>>>>>>>>>KKKKKKKKKKKKKKKKKKKKK",
"KKKKKKKKKKKKKKKKKKKKK>>>>>>>>>>>>>>>>>>>KKKKKKKKKKKKKKKKKKKKKKKK",
"KKKKKKKKKKKKKKKKKKKKK>>>>>>>>>>>>>>>>>>>KKKKKKKKKKKKKKKKKKKKKKKK",
"KKKKKKKKKKKKKKKKKKKKK>>>>>>>>>>>>>>>>>>>KKKKKKKKKKKKKKKKKKKKKKKK",
"KKKKKKKKKKKKKKKKKKKKKaaadKKKKKKKuaaaaaaaKKKKKKKKKKKKKKKKKKKKKKKK",
"KKKKKKKKKKKKKKKKKKKKKooooKKKKKKKooooooooKKKKKKKKKKKKKKKKKKKKKKKK",
"KKKKKKKKKKKKKKKKKKKKKooooKKKKKKKooooooooKKKKKKKKKKKKKKKKKKKKKKKK",
"KKKKKKKKKKKKKKKKKKKKKooooKKKKKKKooooooooKKKKKKKKKKKKKKKKKKKKKKKK",
"KKKKKKKKKKKKKXXXoooooooooKKKKoooooooooooKKKKKKKKKKKKKKKKKKKKKKKK",
"KKKKKKKKKKKKKXXXoooooooooKKKooooooooooooKKKKKKKKKKKKKKKKKKKKKKKK",
"KKKKKKKKKKKKKXXXoooooooooKKKooooooooooooKKKKKKKKKKKKKKKKKKKKKKKK",
"KKKKKKKKKKKKKXXXoooooooooKKKooooooooooooKKKKKKKKKKKKKKKKKKKKKKKK"
};
