/* XPM */
static char *_627592203093[] = {
/* columns rows colors chars-per-pixel */
"64 64 77 1 ",
"  c #BC7702",
". c #B27E02",
"X c #B87A01",
"o c #CB6C01",
"O c #D66400",
"+ c #D66401",
"@ c #D66602",
"# c #D66603",
"$ c #D76805",
"% c #D66F0A",
"& c #D96F0C",
"* c #DA6F0C",
"= c #C47101",
"- c #C87103",
"; c #C97C0F",
": c #D47009",
"> c #DA7310",
", c #DC7A18",
"< c #DD7A18",
"1 c #6BB105",
"2 c #6BB205",
"3 c #36D807",
"4 c #1EE908",
"5 c #18EE08",
"6 c #06FB09",
"7 c #03FD09",
"8 c #00FF09",
"9 c #01FF0A",
"0 c #0BFE0F",
"q c #12F208",
"w c #15FD14",
"e c #24E508",
"r c #2AFC1F",
"t c #2FFB22",
"y c #34FB25",
"u c #3FFA2B",
"i c #48CC06",
"p c #41D006",
"a c #63C915",
"s c #40FA2B",
"d c #55F836",
"f c #7FF44C",
"g c #7EF44D",
"h c #7FF44D",
"j c #8F9803",
"k c #959303",
"l c #999003",
"z c #A18B02",
"x c #B9941A",
"c c #81A204",
"v c #83BA1C",
"b c #DF8120",
"n c #E08322",
"m c #E39030",
"M c #91D83E",
"N c #D4BF51",
"B c #EDAD50",
"V c #EFB558",
"C c #F1BC60",
"Z c #87E846",
"A c #9FF15E",
"S c #BEEE6E",
"D c #BFEE6E",
"F c #BFEE6F",
"G c #AAF164",
"H c #C6C04A",
"J c #F4C469",
"K c #F8D278",
"L c #F8D379",
"P c #F9D47B",
"I c #F9D77D",
"U c #D4ED7A",
"Y c #FCDE85",
"T c #FDE189",
"R c #FFE991",
"E c #FFE992",
"W c None",
/* pixels */
"WWWWWWWWWWWWWWWWWWWWWWWWWWWWWWWWWWWWWWWWWWWWWWWWWWWWWWWWWWWWWWWW",
"WWWWWWWWWWWWWWWWWWWWWWWWWWWWWWWWWWWWWWWWWWWWWWWWWWWWWWWWWWWWWWWW",
"WWWWWWWWWWWWWWWWWWWWWWWWWWWWWWWWWWWWWWWWWWWWWWWWWWWWWWWWWWWWWWWW",
"WWWWWWWWWWWWWWWWWWWWWWWWWWWRRRWWWWWWWWWWWWWWWWWWWWWWWWWWWWWWWWWW",
"WWWWWWWWWWWWWWWWWWWWWWWWWWWRRRWWWWWWWWWWWWWWWWWWWWWWWWWWWWWWWWWW",
"WWWWWWWWWWWWWWWWWWWWWWWWWWWRRRWWWWWWWWWWWWWWWWWWWWWWWWWWWWWWWWWW",
"WWWWWWWWWWWWWWWWWWWWWWWWWWWRRRWWWWWWWWWWWWWWWWWWWWWWWWWWWWWWWWWW",
"WWWWWWWWWWWWWWWWWWWWWWW888sRRRh88888888888WWWWWWWWWWWWWWWWWWWWWW",
"WWWWWWWWWWWWWWWWWWWWWWW888sRRRh88888888888WWWWWWWWWWWWWWWWWWWWWW",
"WWWWWWWWWWWWWWWWWWWWWWW888sRRRf88888888888WWWWWWWWWWWWWWWWWWWWWW",
"WWWWWWWWWWWWWWWWWWWWWWW888sRRRAsuu08888888WWWWWWWWWWWWWWWWWWWWWW",
"WWWWWWWWWWWWWWWWWWW8888888sRRRRRRRt88888888887WWWWWWWWWWWWWWWWWW",
"WWWWWWWWWWWWWWWWWWW8888888sRRRRRRRr88888888888WWWWWWWWWWWWWWWWWW",
"WWWWWWWWWWWWWWWWWWW8888888sRRRRRRRr88888888888WWWWWWWWWWWWWWWWWW",
"WWWWWWWWWWWWWWWW8888888888sRRRRRRRv22221111111WWWWWWWWWWWWWWWWWW",
"WWWWWWWWWWWWWWW88888888888sRRRRRRR,OOOOO++++++WWWWWWWWWWWWWWWWWW",
"WWWWWWWWWWWWWWW88888888888sRRRRRRR<+OOOOOOOOOOWWWWWWWWWWWWWWWWWW",
"WWWWWWWWWWWWWWW88888888888sRRRRRRR<+OOOOOOOOOOWWWWWWWWWWWWWWWWWW",
"WWWWWWWWWWWWWWW88888888888wdddGRRR,+O>BCCCCCCCWWWWWWWWWWWWWWWWWW",
"WWWWWWWWWWWWWWW888888888888888hRRR,OO,LRRRRRREWWWWWWWWWWWWWWWWWW",
"WWWWWWWWWWWWWWW888888888888888ZRRR<OO,LRRRRRRRWWWWWWWWWWWWWWWWWW",
"WWWWWWWWWWWWWWW88888888qqqqqq0ZYYYb**nPRRRRRRRWWWWWWWWWWWWWWWWWW",
"WWWWWWWWWWWWWWW88888885kjjjjjjxmmmVCCJTRRRRRRRWWWWWWWWWWWWWWWWWW",
"WWWWWWWWWWWWWWW8888888eOOOOOOOOOOOLRRRRRRRRRRRWWWWWWWWWWWWWWWWWW",
"WWWWWWWWWWWWWWW8888888eOOOOOOOOOOOLRRRRRRRRRRRWWWWWWWWWWWWWWWWWW",
"WWWWWWWWWWWWWWW88864eepOOOOOOOOOOOLRRRRRRRRRRRWWWWWWWWWWWWWWWWWW",
"WWWWWWWWWWWWWWW8884k..XOOOOOOOOOOOLRRRRRRRRRRRWWWWWWWWWWWWWWWWWW",
"WWWWWWWWWWWWWWW888e.OOOOOOOOOOOOOOLRRRRRRRRRRRWWWWWWWWWWWWWWWWWW",
"WWWWWWWWWWWWWWW888e.OOOOOOOOOOOOOOLRRRRRRRRRRRWWWWWWWWWWWWWWWWWW",
"WWWWWWWWWWWWWWW888e.OO$,,,,,,,,,,,PRRRRRRRRRRRWWWWWWWWWWWWWWWWWW",
"WWWWWWWWWWWWWWWWWWWWWWWRRRRRRRRRRRRRRRRRREWWWWWWWWWWWWWWWWWWWWWW",
"WWWWWWWWWWWWWWWWWWWWWWWRRRRRRRRRRRRRRRRRRRWWWWWWWWWWWWWWWWWWWWWW",
"WWWWWWWWWWWWWWWWWWWWWWWRRRRRRRRRRRRRRRRRRRWWWWWWWWWWWWWWWWWWWWWW",
"WWWWWWWWWWWWWWWWWWWWWWWhhhhhhhhhhhhhhhhhfM;O#WWWWWWWWWWWWWWWWWWW",
"WWWWWWWWWWWWWWWWWWWWWWW888888888888888888i OOOWWWWWWWWWWWWWWWWWW",
"WWWWWWWWWWWWWWWWWWWWWWW888888888888888888i=OOOWWWWWWWWWWWWWWWWWW",
"WWWWWWWWWWWWWWWWWWWWWWW888888888888888888i=OOOWWWWWWWWWWWWWWWWWW",
"WWWWWWWWWWWWWWWWWWW8888888tFFFFFFFFFFFFFSN%OO#WWWWWWWWWWWWWWWWWW",
"WWWWWWWWWWWWWWWWWWW8888888sRRRRRRRRRRRRRRC*OOOWWWWWWWWWWWWWWWWWW",
"WWWWWWWWWWWWWWWWWWW8888888sRRRRRRRRRRRRREC*OO+WWWWWWWWWWWWWWWWWW",
"WWWWWWWWWWWWWWWWWWW8888888sRRRRRRRRRRRRRRC*OOOWWWWWWWWWWWWWWWWWW",
"WWWWWWWWWWWWWWWWWWW8888888sRRRRRRRRRRRRRRC*OOOWWWWWWWWWWWWWWWWWW",
"WWWWWWWWWWWWWWWWWWW8888888sRRRRRRRRRRRRRRC*OO#WWWWWWWWWWWWWWWWWW",
"WWWWWWWWWWWWWWWWWWW8888888uRRRRRRRRRRRRRRC&OOOWWWWWWWWWWWWWWWWWW",
"WWWWWWWWWWWWWWWWWWW8888888yUUUUUUUUUUUUUUN%OOOWWWWWWWWWWWWWWWWWW",
"WWWWWWWWWWWWWWWWWWW88888880rrrrtrrrrrrrrra-OOOWWWWWWWWWWWWWWWWWW",
"WWWWWWWWWWWWWWWWWWW8888888888888888888888i=OOOWWWWWWWWWWWWWWWWWW",
"WWWWWWWWWWWWWWWWWWW8888888888888888888888i=OOOWWWWWWWWWWWWWWWWWW",
"WWWWWWWWWWWWWWWWWWW8888888888888888888889i=OOOWWWWWWWWWWWWWWWWWW",
"WWWWWWWWWWWWWWWWWWW8888888888888888888888i=OOOWWWWWWWWWWWWWWWWWW",
"WWWWWWWWWWWWWWWWWWW8888888888888888888888i=OOOWWWWWWWWWWWWWWWWWW",
"WWWWWWWWWWWWWWWWWWW8888888888888888888888i=OOOWWWWWWWWWWWWWWWWWW",
"WWWWWWWWWWWWWWWWWWW88988888888888888888883 O#WWWWWWWWWWWWWWWWWWW",
"WWWWWWWWWWWWWWWWWWWWWWW8888888888888888889WWWWWWWWWWWWWWWWWWWWWW",
"WWWWWWWWWWWWWWWWWWWWWWW8888888888888888899WWWWWWWWWWWWWWWWWWWWWW",
"WWWWWWWWWWWWWWWWWWWWWWW8888888888888888889WWWWWWWWWWWWWWWWWWWWWW",
"WWWWWWWWWWWWWWWWWWWOOOozzzzzzzcWWWlzzzzzzzWWWWWWWWWWWWWWWWWWWWWW",
"WWWWWWWWWWWWWWWWWWWOOOOOOOOOOOOWWWOOOOOOOOWWWWWWWWWWWWWWWWWWWWWW",
"WWWWWWWWWWWWWWWWWWWOOOOOOOOOOOOWWWOOOOOOOOWWWWWWWWWWWWWWWWWWWWWW",
"WWWWWWWWWWWWWWWWWWWOOOOOOOOOOOOWWWOOOOOOOOWWWWWWWWWWWWWWWWWWWWWW",
"WWWWWWWWWWWWWWWWWWWOOOOWWWWWWWWWWWOOOOOOOOOOOOWWWWWWWWWWWWWWWWWW",
"WWWWWWWWWWWWWWWWWWWOOOOWWWWWWWWWWWOOOOOOOOOOOOWWWWWWWWWWWWWWWWWW",
"WWWWWWWWWWWWWWWWWWWOOOOWWWWWWWWWWWOOOOOOOOOOOOWWWWWWWWWWWWWWWWWW",
"WWWWWWWWWWWWWWWWWWWOOOOWWWWWWWWWWWOOOOOOOOOOOOWWWWWWWWWWWWWWWWWW"
};
