/* XPM */
static char *_6f50a68c4c44c5fc1637ab9195acedd3bsDYMtQFX5vYoox[] = {
/* columns rows colors chars-per-pixel */
"64 64 239 2 ",
"   c None",
".  c #B37D01",
"X  c #B37E01",
"o  c #B27E02",
"O  c #B37E02",
"+  c #B47C01",
"@  c #B57C01",
"#  c #B47D01",
"$  c #B67C01",
"%  c #B87901",
"&  c #B87A01",
"*  c #CD6A00",
"=  c #D26700",
"-  c #D66400",
";  c #D66401",
":  c #D66501",
">  c #D66502",
",  c #D76502",
"<  c #D76704",
"1  c #D76705",
"2  c #D06800",
"3  c #D76804",
"4  c #D86B08",
"5  c #D96F0C",
"6  c #DA6F0C",
"7  c #C47101",
"8  c #C07D09",
"9  c #DB7310",
"0  c #DB7412",
"q  c #D97015",
"w  c #DA7216",
"e  c #DC7614",
"r  c #D97A16",
"t  c #DC7816",
"y  c #DA751C",
"u  c #DC7A18",
"i  c #DD7A18",
"p  c #5FBA05",
"a  c #77A904",
"s  c #6BB205",
"d  c #6CB206",
"f  c #60B905",
"g  c #61B905",
"h  c #62B905",
"j  c #32DA07",
"k  c #35D807",
"l  c #36D807",
"z  c #38D90A",
"x  c #1EEA08",
"c  c #1BEC08",
"v  c #18EE08",
"b  c #00FF09",
"n  c #01FF0A",
"m  c #02FF0B",
"M  c #03FF0C",
"N  c #06FF0F",
"B  c #0BFE0F",
"V  c #12F208",
"C  c #13F80E",
"Z  c #0AFF13",
"A  c #0CFF14",
"S  c #0FFF17",
"D  c #10FE11",
"F  c #15FD14",
"G  c #12FF1A",
"H  c #13FF1B",
"J  c #14FF1C",
"K  c #14FF1D",
"L  c #15FF1D",
"P  c #25E407",
"I  c #24E507",
"U  c #25E507",
"Y  c #24E508",
"T  c #20E909",
"R  c #2AFB20",
"E  c #2BFC20",
"W  c #3AFB2E",
"Q  c #3BFB2F",
"!  c #4DC706",
"~  c #4EC706",
"^  c #43CF06",
"/  c #4CC806",
"(  c #48CC06",
")  c #50C506",
"_  c #41D006",
"`  c #42DB17",
"'  c #64C915",
"]  c #6ADF2D",
"[  c #75D329",
"{  c #47F92E",
"}  c #54F836",
"|  c #55F836",
" . c #7FE741",
".. c #69F641",
"X. c #6AF642",
"o. c #6BF642",
"O. c #6CF642",
"+. c #7FF44C",
"@. c #7FF44D",
"#. c #8F9803",
"$. c #959303",
"%. c #AE8102",
"&. c #AA8402",
"*. c #A18A02",
"=. c #A08B02",
"-. c #A18B02",
";. c #A3AF25",
":. c #BDB93E",
">. c #D6861E",
",. c #DE801E",
"<. c #DF8120",
"1. c #E08322",
"2. c #E08524",
"3. c #E18524",
"4. c #E38C2C",
"5. c #E39030",
"6. c #E49030",
"7. c #E59636",
"8. c #E69636",
"9. c #E69B3C",
"0. c #E79B3C",
"q. c #E79B3E",
"w. c #E79C3C",
"e. c #D2A034",
"r. c #DDA33D",
"t. c #D3AA3D",
"y. c #C3B53D",
"u. c #8ACB2F",
"i. c #A3C135",
"p. c #AFC13C",
"a. c #E89F40",
"s. c #D5BF51",
"d. c #E9A142",
"f. c #E9A143",
"g. c #EAA648",
"h. c #EBA648",
"j. c #EAA749",
"k. c #EDAF52",
"l. c #EEB154",
"z. c #EEB155",
"x. c #EFB558",
"c. c #E3BE59",
"v. c #F1BC60",
"b. c #B3D24E",
"n. c #81E742",
"m. c #80F44D",
"M. c #81F44D",
"N. c #82F44E",
"B. c #83F44F",
"V. c #85F450",
"C. c #86F450",
"Z. c #88F351",
"A. c #89F352",
"S. c #8AF353",
"D. c #95F35C",
"F. c #9BF25B",
"G. c #9DF25D",
"H. c #BFEE6F",
"J. c #BEEF6F",
"K. c #BFEF6F",
"L. c #A6F265",
"P. c #AAF164",
"I. c #F4C468",
"U. c #F5C86D",
"Y. c #F5CA6F",
"T. c #E6D46F",
"R. c #F8D278",
"E. c #F8D379",
"W. c #F9D57B",
"Q. c #F9D67D",
"!. c #F9D77D",
"~. c #FAD87F",
"^. c #C3EE70",
"/. c #C4EE72",
"(. c #C5EE72",
"). c #D4ED7A",
"_. c #D5ED7A",
"`. c #D5ED7B",
"'. c #D8EC7C",
"]. c #D8ED7D",
"[. c #B0FB9F",
"{. c #9FFFA3",
"}. c #A2FFA5",
"|. c #A6FFA9",
" X c #A7FFAA",
".X c #A9FFAC",
"XX c #B3FBA2",
"oX c #FADA81",
"OX c #FBDC83",
"+X c #FADB85",
"@X c #FBDE85",
"#X c #FCDE85",
"$X c #D8F39B",
"%X c #DFF29B",
"&X c #E9EB85",
"*X c #EAEB85",
"=X c #E9EB86",
"-X c #EAEB86",
";X c #EBEB87",
":X c #FCE087",
">X c #FDE289",
",X c #FEE58D",
"<X c #FEE78F",
"1X c #F1EA89",
"2X c #F4EA8B",
"3X c #F5EA8C",
"4X c #F6EA8C",
"5X c #F7EA8D",
"6X c #FAE98E",
"7X c #FCE98F",
"8X c #F1EC94",
"9X c #F8EB92",
"0X c #FFE991",
"qX c #FFE992",
"wX c #FFE993",
"eX c #FCEA93",
"rX c #FFE994",
"tX c #FFEA94",
"yX c #FFEA95",
"uX c #FFEA96",
"iX c #FFEA97",
"pX c #FFEA98",
"aX c #FFEA99",
"sX c #FFEB99",
"dX c #FFEC9F",
"fX c #FFECA0",
"gX c #FFECA1",
"hX c #FFECA2",
"jX c #FFF0B4",
"kX c #FFF1B8",
"lX c #FFF2BB",
"zX c #FFF2C0",
"xX c #FFF2C1",
"cX c #FFF8DA",
"vX c #FFF8DB",
"bX c #FFFAE9",
"nX c #FFFBEA",
"mX c #FFFBEB",
"MX c white",
/* pixels */
"                                                                                                                                ",
"                                                                                                                                ",
"                                                                                                                                ",
"                                                                                                                                ",
"                                                                                                                                ",
"                                          b b b b b b b b b b b b b b b b b b b b b b M                                         ",
"                                          b b b b b b b b b b b b b b b b b b b b b b b                                         ",
"                                  b b b b b b b b b b b b b b b b b b b b b b b b b b b b b b b                                 ",
"                                  b b b b b b b b b b b b b b b b b b b b b b b b b b b b b b b                                 ",
"                                  b b b b b b b b b b b b b b b b b b b b b b b b b b b b b b N                                 ",
"                                  b b b b b b b b b b b b b b b b b b b b b b b b b b b b b b N                                 ",
"                  0X0X0X0X        M b b Y , ; ; - - - - - - - - - - - - - - - - - - - #.V b b Z       0X0X0X0X                  ",
"                  0X0X0X0X        b b b Y - - - - - - - - - - - - - - - - - - - - - - #.V b b A       0X0X0X0X                  ",
"                  0X0X0X0X        M b b Y - - - - - - - - - - - - - - - - - - - - - - #.V b b G       0X0X0X0X                  ",
"                  0X0X0X0X        z l l ) - - - - - - - - - - - - - - - - - - - - - - -.^ l l `       uX0X0X0X                  ",
"                  0X0X0X0X        < - - - - - - - - - - - - - - - - - - - - - - - - - - - - - q       0X0X0X0X                  ",
"                  0X0X0X0X        < - - - - - - - - - - - - - - - - - - - - - - - - - - - - - q       uX0X0X0X                  ",
"                  0X0X0X0X        < - - - - - - - - - - - - - - - - - - - - - - - - - - - - - y       0X0X0X0X                  ",
"                  0X0X0X0XuXuXuX+X0 - - 9 v.v.v.i.! ! / p.v.v.v.v.v.v.s.' ( ( ' c.v.v.a.4 - ; 0.pXuXuX0X0X0X0X                  ",
"                  0X0X0X0X0X0X0X@Xi - - i 0X0X0XS.b b b F.0X0X0X0X0X0X_.R b b R =X0X0Xv.6 - ; g.0X0X0X0X0X0X0X                  ",
"                  0X0X0X0X0X0X0X@Xi - - i 0X0X0XS.b b b G.0X0X0X0X0X0X_.R b b R =X0X0Xv.6 ; ; g.0X0X0X0X0X0X0X                  ",
"                  0X0X0X0X0X0X0X@Xi - - i 0X0X0XD.H K K L.0X0X0X0X0X0X`.Q H H W ;X0X0Xv.6 ; ; g.0X0X0X0X0X0X0X                  ",
"                  0X0X0X0X0X0X0X@Xi - - i 0X0X0X$X X X.X%X0X0X0X0X0X0X8XXX}.{.XX9X0X0Xv.6 ; ; j.0X0X0X0X0X0X0X                  ",
"                  0X0X0X0X0X0X0X#Xi - - i 0X0X0XxXMXMXMXlX0X0X0X0X0X0XgXbXMXMXbXpX0X0Xv.6 ; ; j.0X0X0X0X0X0X0X                  ",
"                  0X0X0X0X0X0X0X#Xi - - i 0X0X0XxXMXMXMXkX0X0X0X0X0X0XgXmXMXMXbXpX0X0Xv.6 - ; j.0X0X0X0X0X0X0X                  ",
"                  0X0X0X0X0X0X0X:X4.i i 4.0X0X0XkXbXmXbXjX0X0X0X0X0X0XgXvXmXmXvXpX0X0XI.1.i i z.0X0X0XoXR.E.E.                  ",
"                          uX0X0X<XQ.E.E.Q.0X0X0XpXgXgXgXpX0X0X0X0X0X0XuXgXgXgXdX0X0X0X>XQ.E.E.#X0X0X0X7.t i i                   ",
"                          uX0X0X0X0X0X0X0X0X0X0X0X0X0X0X0X0X0X0X0X0X0X0X0X0X0X0X0X0X0X0X0X0X0X0X0X0X0X3.- - -                   ",
"                          uX0X0X0X0X0X0X0X0X0X0X0X0X0X0X0X0X0X0X0X0X0X0X0X0X0X0X0X0X0X0X0X0X0X0X0X0X0X<.- - -                   ",
"                          uX7X6X6X5X5X2X5X0X0X0X0X0X0X0XOXE.E.E.E.E.E.~.<X7X0X0X0X0X0X1X].`.`.`._._.).<.- - -                   ",
"                                          0X0X0X0X0X0X0Xw.- - - - - - i E.0X0X0X0X0X0XP.F b b b b b b =.- - -                   ",
"                                          0X0X0X0X0X0X0X0.- - - - - - t E.0X0X0X0X0X0XP.F b b b b b b =.- - -                   ",
"                                          0X0X0X0X0X0X0X0.- - - - - - i E.0X0X0X0X0X0XP.F b b b b b b -.; ; ;                   ",
"                                        ;.U.U.U.~.0X0X0Xk.3.3.3.3.3.3.7.~.0X0X2X(.H.H.m.D b b c k k k %.; ; ;                   ",
"          - ; ; - - - - - - - - - - - - - - - - j.0X0X0X0X0X0X0X0X0X0X0X0X0X0X_.F b b b b b b s ; ; ; ; ; ; ; ; - - -           ",
"          - ; ; - - - - - - - - - - - - - - - - j.0X0X0X0X0X0X0X0X0X0X0X0X0X0X_.F b b b b b b s ; ; ; ; ; ; ; ; - - -           ",
"          < ; ; - - - - - - - - - - - - - - - - j.0X0X0X7X0X0X0X0X0X0X0X0X0X0X_.F b b b b b b s ; ; ; ; ; ; ; ; - - -           ",
"    - < - - ; ; - 6.h.j.f.i - - - - - - - - - - 3.j.j.j.b.S.C.C.V.m.m.m.m.m.m.X.B b b b b b b [ h.g.j.0 ; ; ; ; - - -           ",
"    - - - - - - - v.0X0X@X5.; ; - - - - - - - - - - - - h b b b b b b b b b b b b b b b b b b +.0X0X0X3.; ; ; ; - - -           ",
"    - - - - - - - v.0X0X:X4.; ; - - - - - - - - - - - - h b b b b b b b b b b b b b b b b b b +.0X0X0X1.; ; ; ; - - -           ",
"    - - - - - - ; v.0X0X@X4.; ; - - - - - - - - - - - - p b b b b b b b b b b b b b b b b b b +.0X0X0X3.; ; - - - - -           ",
"    - - - w.E.E.E.>X0X0X7XOXE.E.U.e - - - - - - w.E.E.E.e.# . & # . . $.x b b b b b b { ^._._.=X0X0X0XQ.R.E.E.- - - -           ",
"    - - ; g.0X0X0X0X0X0X0X0X0X0X#Xi - - - - - - j.0X0X0X0.; ; ; - - - . Y b b b b b b | =X0X0X0X0X0X0X0X0X0X0X- - - -           ",
"    - - ; j.0X0X0X0X0X0X0X0X0X0X#Xi - - - - - - j.0X0X0X0.; ; ; - - - . Y b b b b b b | =X0X0X0X0X0X0X0X0X0X0X- - - -           ",
"    ; ; ; 9.E.E.E.>X0X0X<XoXE.E.Y.e - - - - - - j.0X0X0Xt.# . . * - ; % ^ Y Y Y Y Y Y ] T.E.E.#X0X0X0X0X0X0X0Xt i t i           ",
"    ; ; ; 6 i t i I.0X0X:Xf.i i t 3 - - - - - - j.0X0X0Xn.I I I &.- ; * & . . . O O O 8 r i i z.0X0X0X0X0X0X0XE.E.R.E.          ",
"    ; ; ; ; ; ; - v.0X0X@X5.- - - - - - - - - - j.0X0X0XO.b b b -.- - - - - - - - - - - - - - j.0X0X0X0X0X0X0X0X0X0X0X          ",
"    ; ; ; ; ; ; - v.0X0X@X5.- - - - - - - - - - j.0X0X0XO.b b b -.- - - - - - - - - - - - - - j.0X0X0X0X0X0X0X0X0X0X0X          ",
"    - - - - - - - v.0X0X@X5.- - - - - - - - - - j.0X0X0X .I I I &.; ; 2 & O O O O O O O O . . y._.).).1X0X0X0X0X0X0X0X          ",
"    - - - - - - - v.0X0X@X5.- - - - - - - - - - j.0X0X0Xr.7 7 7 = ; ; # j V V V V V V V V V V C F F F (.0X0X0X                  ",
"    - - - - - - - v.0X0X@X5.- - - - - - - - - - j.0X0X0X0.- - - ; ; - O Y b b b b b b b b b b b b b b ^.0X0X0X                  ",
"    - - - - - - - v.0X0X@X5.- - - - - - - - - - g.0X0X0X0.- - - ; ; - O Y b b b b b b b b b b b b b b J.0X0X0X                  ",
"    - - - - - - - a.v.v.x.<.- - - - - - - - - - g.0X0X0X:.#.#.#.#.#.#.a v b b b b b b b b b b b b b M K.0X0X0X                  ",
"    - - - - - - - - - - - - - - - - - - - - - - g.0X0X0XX.b b b b b b b b b b b b b b b b b b M                                 ",
"    - - - - - - - - - - - - - - - - - - - - - - g.0X0X0XX.b b b b b b b b b b b b b b b b b b M                                 ",
"    - - - - - - - - - - - - - - - - - - - - - - g.0X0X0X..b b b b b b b b b b b b b b b b b b M                                 ",
"    - - - 5.g.j.j.g.g.g.g.g.g.g.g.g.g.g.g.g.g.g.g.h.g.j.u.M M M b b N T h s s s s s s s s s d d                                 ",
"            0X0X0X0X0X0X0X0X0X0X0X0X0X0X0X0X0X0Xh.; ; -                 - - - - - - - - - - - -                                 ",
"            0X0X0X0X0X0X0X0X0X0X0X0X0X0X0X0X0X0Xg.; - -                 - - - - - - - - - - - -                                 ",
"            0X0X0X0X0X0X0X0X0X0X0X0X0X0X0X0X0X0Xg.; - -                 - - - - - - - - - - - -                                 ",
"                                  f.q.q.w.q.q.q.i - - -                 - - - - - - - - - - - -                                 ",
"                                  - - - - - - - - - - -                 - - - - - - - - - - - -                                 ",
"                                  - - - - - - - - - - -                 - - - - - - - - - - - -                                 ",
"                                  - - - - - - - - - - -                 - - - - - - - - - - - -                                 "
};
