/* XPM */
static char *_627592125995[] = {
/* columns rows colors chars-per-pixel */
"64 64 60 1 ",
"  c #B27E02",
". c #B37E02",
"X c #BB7801",
"o c #B87A01",
"O c #CD6A00",
"+ c #D66400",
"@ c #D66502",
"# c #D96F0C",
"$ c #C47101",
"% c #59BE05",
"& c #7DA504",
"* c #78A804",
"= c #6BB105",
"- c #6BB205",
"; c #75B00A",
": c #2DDF07",
"> c #35D807",
", c #36D807",
"< c #1EE908",
"1 c #1FE908",
"2 c #18EE08",
"3 c #0DF508",
"4 c #06FB09",
"5 c #03FD09",
"6 c #00FF09",
"7 c #01FF0A",
"8 c #02FF0B",
"9 c #04FC09",
"0 c #12F208",
"q c #2BE007",
"w c #24E508",
"e c #3FFA2B",
"r c #47CB06",
"t c #48CC06",
"y c #50C506",
"u c #41D006",
"i c #8F9703",
"p c #869E03",
"a c #8F9803",
"s c #959303",
"d c #A98402",
"f c #A18B02",
"g c #AAAC26",
"h c #E08524",
"j c #E38D2D",
"k c #C0AA31",
"l c #D5A83D",
"z c #EAA648",
"x c #EBA648",
"c c #F1BC60",
"v c #A9F163",
"b c #D9CE61",
"n c #F3C064",
"m c #F5C76C",
"M c #F8D278",
"N c #F8D379",
"B c #FADA81",
"V c #E2EC82",
"C c #FFE991",
"Z c None",
/* pixels */
"ZZZZZZZZZZZZZZZZZZZZZZZZZZZZZZZZZZZZZZZZZZZZZZZZZZZZZZZZZZZZZZZZ",
"ZZZZZZZZZZZZZZZZZZZZZZZZZZZZZZZZZZZZZZZZZZZZZZZZZZZZZZZZZZZZZZZZ",
"ZZZZZZZZZZZZZZZZZZZZZZZZZZZZZZZZZZZZZZZZZZZZZZZZZZZZZZZZZZZZZZZZ",
"ZZZZZZZZZZZZZZZZZZZZZZZZZZZZZZZZZZZZZZZZZZZZZZZZZZZZZZZZZZZZZZZZ",
"ZZZZZZZZZZZZZZZZZZZZZZZZZZZZZZZZZZZZZZZZZZZZZZZZZZZZZZZZZZZZZZZZ",
"ZZZZZZZZZZZZZZZZZZZZZZZZZZZZZZZZZZZZZZZZZZZZZZZZZZZZZZZZZZZZZZZZ",
"ZZZZZZZZZZZZZZZZZZZZZZZZZZZZZZZZZZZZZZZZZZZZZZZZZZZZZZZZZZZZZZZZ",
"ZZZZZZZZZZZZZZZZZZZZZ66666666666666666666666ZZZZZZZZZZZZZZZZZZZZ",
"ZZZZZZZZZZZZZZZZZZZZZ66666666666666666666666ZZZZZZZZZZZZZZZZZZZZ",
"ZZZZZZZZZZZZZZZZZZZZZ66666666666666666666666ZZZZZZZZZZZZZZZZZZZZ",
"ZZZZZZZZZZZZZZZZZZZZZ66666666666666666666666ZZZZZZZZZZZZZZZZZZZZ",
"ZZZZZZZZZZCCCCZZZ6666666666666666666666666666666ZZZZCCCCZZZZZZZZ",
"ZZZZZZZZZZCCCCZZZ6666666666666666666666666666666ZZZZCCCCZZZZZZZZ",
"ZZZZZZZZZZCCCCZZZ8666666666666666666666666666666ZZZZCCCCZZZZZZZZ",
"ZZZZZZZZZZCCCVZZZ6666666666666666666666666666666ZZZZCCCCZZZZZZZZ",
"ZZZZZZZZZZCCCv6666666666666666666666666666666666666eCCCCZZZZZZZZ",
"ZZZZZZZZZZCCCv6666666666666666666666666666666666666eCCCCZZZZZZZZ",
"ZZZZZZZZZZCCCv6666666666666666666666666666666666666eCCCCZZZZZZZZ",
"ZZZZZZZZZZCCCbaaar666666666666666666666666666666aaagCCCCZZZZZZZZ",
"ZZZZZZZZZZCCCc+++=666666666666666666666666666666+++hCCCCZZZZZZZZ",
"ZZZZZZZZZZCCCc+++=666666666666666666666666666666+++hCCCCZZZZZZZZ",
"ZZZZZZZZZZCCCn###;000000066666666666666630000000###jCCCCZZZZZZZZ",
"ZZZZZZZZZZCCCBccckaaaaaai266666666666666=aaaaaaacccmCCCCZZZZZZZZ",
"ZZZZZZZZZZCCCCCCCx+++++++w66666666666666f+++++++CCCCCCCCZZZZZZZZ",
"ZZZZZZZZZZCCCCCCCx+++++++w66666666666666f+++++++CCCCCCCCZZZZZZZZ",
"ZZZZZZZZZZCCCCCCCx+++++++uww<46666660wwwd+++++++CCCCCCCCZZZZZZZZ",
"ZZZZZZZZZZZZZZCCCx+++++++o..s<666666%...O+++++++CCCCZZZZZZZZZZZZ",
"ZZZZZZZZZZZZZZCCCx++++++++++ow666666=+++++++++++CCCCZZZZZZZZZZZZ",
"ZZZZZZZZZZZZZZCCCx++++++++++.w666666=+++++++++++CCCCZZZZZZZZZZZZ",
"ZZZZZZZZZZZZZZMMMl...O++++++X,wwwwww&+++++++X...MMMMZZZZZZZZZZZZ",
"ZZZZZZZZZZZZZZ+++=666f++++++++++++++++++++++,666++++ZZZZZZZZZZZZ",
"ZZZZZZZZZZZZZZ+++=666f++++++++++++++++++++++,666++++ZZZZZZZZZZZZ",
"ZZZZZZZZZZZZZZ+++=666f++++++++++++++++++++++,666++++ZZZZZZZZZZZZ",
"ZZZZZZZZZZZZZ++++=666&ffffffffffffffffffffffy,,,++++ZZZZZZZZZZZZ",
"ZZZZZZZZZZ+++++++=66666666666666666666666666f+++++++ZZZZZZZZZZZZ",
"ZZZZZZZZZZ+++++++=66666666666666666666666666f+++++++ZZZZZZZZZZZZ",
"ZZZZZZZZZZ+++++++=66666666666666666666666666f+++++++ZZZZZZZZZZZZ",
"ZZZZZZZZZZ+++++++=66666666666666666666666666f+++++++ZZZZZZZZZZZZ",
"ZZZZZZZZZZ+++++++=66666666666666666666666666f+++++++ZZZZZZZZZZZZ",
"ZZZZZZZZZZ+++++++=66666666666666666666666666f+++++++ZZZZZZZZZZZZ",
"ZZZZZZZZZZ+++++++=66666666666666666666666666f+++++++ZZZZZZZZZZZZ",
"ZZZZZZZZZZZZZZ+++$...:6666666666666666666666f+++++++ZZZZZZZZZZZZ",
"ZZZZZZZZZZZZZZ+++++++>6666666666666666666666f+++++++ZZZZZZZZZZZZ",
"ZZZZZZZZZZZZZZ+++++++>6666666666666666666666f+++++++ZZZZZZZZZZZZ",
"ZZZZZZZZZZZZZZ.......rwwwwwwwwwwwwwwwwwwwwwwa...++++ZZZZZZZZZZZZ",
"ZZZZZZZZZZZZZZwwwwwwwa......................rwwwZZZZZZZZZZZZZZZZ",
"ZZZZZZZZZZZZZZ6666666f++++++++++++++++++++++,666ZZZZZZZZZZZZZZZZ",
"ZZZZZZZZZZZZZZ6666666f++++++++++++++++++++++,666ZZZZZZZZZZZZZZZZ",
"ZZZZZZZZZZZZZZ6666666p..... ................:666ZZZZZZZZZZZZZZZZ",
"ZZZZZZZZZZZZZZ66666663000003000000000000000096666666ZZZZZZZZZZZZ",
"ZZZZZZZZZZZZZZ66666666666666666666666666666666666666ZZZZZZZZZZZZ",
"ZZZZZZZZZZZZZZ66666666666666666666666666666666666666ZZZZZZZZZZZZ",
"ZZZZZZZZZZZZZZtttw666666666666666666wttttttttttt6666ZZZZZZZZZZZZ",
"ZZZZZZZZZZZZZZ+++=666666666666666666=+++++++++++ZZZZZZZZZZZZZZZZ",
"ZZZZZZZZZZZZZZ+++=666666666666666666=+++++++++++ZZZZZZZZZZZZZZZZ",
"ZZZZZZZZZZZZZZ+++=666666666666666666=+++++++++++ZZZZZZZZZZZZZZZZ",
"ZZZZZZZZZZZZZZ+++s-=--==-<666666q===f+++++++++++ZZZZZZZZZZZZZZZZ",
"ZZZZZZZZZZZZZZZZZ+@@@@+++ZZZZZZZZ+++++++++++++++ZZZZZZZZZZZZZZZZ",
"ZZZZZZZZZZZZZZZZZ+++@++++ZZZZZZZZ+++++++++++++++ZZZZZZZZZZZZZZZZ",
"ZZZZZZZZZZZZZZZZZ+++@++++ZZZZZZZZ+++++++++++++++ZZZZZZZZZZZZZZZZ",
"ZZZZZZZZZZZZZZZZZZZZZZZZZZZZZZZZZZZZ+++++++++ZZZZZZZZZZZZZZZZZZZ",
"ZZZZZZZZZZZZZZZZZZZZZZZZZZZZZZZZZZZZ++++++++ZZZZZZZZZZZZZZZZZZZZ",
"ZZZZZZZZZZZZZZZZZZZZZZZZZZZZZZZZZZZZ++++++++ZZZZZZZZZZZZZZZZZZZZ",
"ZZZZZZZZZZZZZZZZZZZZZZZZZZZZZZZZZZZZ++++++++ZZZZZZZZZZZZZZZZZZZZ"
};
