/* XPM */
static char *_f0a71459998426eed7a8ce7441daf2d9d9tCcgETVbEUDcV[] = {
/* columns rows colors chars-per-pixel */
"100 100 36 1 ",
"  c None",
". c #D66400",
"X c #D66501",
"o c #D66502",
"O c #DC7715",
"+ c #77A904",
"@ c #18EE08",
"# c #00FF09",
"$ c #01FF0A",
"% c #02FF0B",
"& c #1CFD18",
"* c #38FA27",
"= c #47CB06",
"- c #48CB07",
"; c #56C106",
": c #54F836",
"> c #55F836",
", c #8F9803",
"< c #AB9512",
"1 c #9FA418",
"2 c #DF8120",
"3 c #C79321",
"4 c #E39030",
"5 c #E49030",
"6 c #80C624",
"7 c #84D534",
"8 c #E89F40",
"9 c #F1BC60",
"0 c #F1BD61",
"q c #A9F063",
"w c #AAF063",
"e c #AAF064",
"r c #F6CB71",
"t c #C6EE73",
"y c #FFE991",
"u c #FFE992",
/* pixels */
"                                                                                                    ",
"                                                                                                    ",
"                                          yyuyyy                                                    ",
"                                          yyuuyy                                                    ",
"                                          uyyyyy                                                    ",
"                                          uuyyyy                                                    ",
"                                          yyyyyy                                                    ",
"                                          yyyyyy                                                    ",
"                                    #####>uuyyyw#################                                   ",
"                                    #####>uuyyyw#################                                   ",
"                                    #####>yyyyyw#################                                   ",
"                                    #####>yyyyyw#################                                   ",
"                                    #####>yyyyyw#################                                   ",
"                                   %#####>yyyyyt>>>>>&############                                  ",
"                              ###########>yyyyyyyyuyu>#################                             ",
"                              ###########>yyyyyyyyyyu>#################                             ",
"                              ###########>yyyyyyyyyyy>#################                             ",
"                              ###########>yyyyyyyyyyu>#################                             ",
"                              ###########>yyyyyyyyyyu>#################                             ",
"                             ############>yyyyyyyyyyu7=================                             ",
"                        #################>yyyyyyyyyyy5.................                             ",
"                        #################>yyyyyyyyyyy5.................                             ",
"                        #################>yyyyyyyyyyy5.................                             ",
"                        #################>yyyyyyyyyyy5.................                             ",
"                        #################>uuyyyyyyyyu5.................                             ",
"                        #################*wwwwwtyyyyu5.....255555555544                             ",
"                        #######################>yyyyu5.....9yyuuyyyyuyy                             ",
"                        #######################>yyyyy5.....9yyyuyyyyuuy                             ",
"                        #######################>yyyyu5.....9yyyyyyyyyyu                             ",
"                        #######################>yyyyu5.....9yyyyyyyyyuu                             ",
"                        #######################>uuyyu5.....9yyyyyyyyyyu                             ",
"                        ###########@===========699999855555ryyyyyyyyyyu                             ",
"                        ###########=.................9yyyyyyyyyyyyyyyyu                             ",
"                        ###########=.................9yyyyyyyyyyyyyyyyu                             ",
"                        ###########=.................9yyyyyyyyyyyyyyyyy                             ",
"                        ###########=.................9yyyyyyyyyyyyyyyyy                             ",
"                        ###########=.................9yyyyyyyyyyyyyyyyu                             ",
"                        #####@=====+.................9yyyyyyyyyyyyyyyuu                             ",
"                        #####=.......................9yyyyyyyyyyyyyyyyu                             ",
"                        #####=.......................ryyyyyyyyyyyyyyyyu                             ",
"                        #####-.......................9yyyyyyyyyyyyyyyyu                             ",
"                        #####-.......................9yyyyyyyyyyyyyyyyu                             ",
"                        #####=.......................0yyyyyyyyyyyyuuyyy                             ",
"                        #####-.....O44455555555544444ryyyyyyyyyyuuuuuyy                             ",
"                                    uuyyuuyyyyyyuuuuyyyyyyyyyyyyu                                   ",
"                                    uuyyyuyyyyyyuuyyyyyyyyyyyyyyu                                   ",
"                                    uyyyyyyyyyyyyyyyyyyyyyyyyyyyu                                   ",
"                                    uyyyyyyyyyyyyyyyyyyyyyyyyyyyu                                   ",
"                                    yyyyyyyyyuuuyyyyuuuyyyyyyyyyu                                   ",
"                                    :::>:>>>>>>>>>>>>>>>>>>>>>>>>1....o                             ",
"                                    #############################,.....                             ",
"                                    #############################,.....                             ",
"                                    #############################,.....                             ",
"                                    #############################,.....                             ",
"                                    #############################,.....                             ",
"                              ##%########*wwwwwwwwweeeeewwwwwwwww3.....                             ",
"                              ###########>yyyyyyyyyyyyyyuuyyyyyyy5.....                             ",
"                              ###########>yyyyyyyyyyyyyyyuyyyyyyu5.....                             ",
"                              ###########>yyyyyyyyyyyyyyyyyyyyyyu5.....                             ",
"                              ###########>yyyyyyyyyyyyyyyyyyyyyyu5.....                             ",
"                              ###########>yyyyyyyyyyyyyyyyyyyyyyy5.....                             ",
"                              ###########>yyyyyyyyyyyyyyyyyyyyyyu5.....                             ",
"                              ###########>yyyyyyyyyyyyyyyyyyyyyyu5.....                             ",
"                              ###########>yyyyyyyyyyyyyyyyyyyyyyu5.....                             ",
"                              ###########>uuyyyyyyyyyyyyyyyyyyyyy4.....                             ",
"                              ###########>uuyyyyyyyyyyyyyyyyyyyyy4.....                             ",
"                              ###########:uuyyyyyyyyyyyyyyyyyyyyy4.....                             ",
"                              ###########&::>>>>>>>>>>>>:::>:::::<.....                             ",
"                              ###################################,.....                             ",
"                              ###################################,.....                             ",
"                              ###################################,.....                             ",
"                              ###################################,.....                             ",
"                              ###################################,.....                             ",
"                              ###################################,.....                             ",
"                              ###################################,.....                             ",
"                              ###################################,.....                             ",
"                              ###################################,.....                             ",
"                              ###################################,.....                             ",
"                              ###################################,.....                             ",
"                                   ##############################;                                  ",
"                                    #############################                                   ",
"                                    #############################                                   ",
"                                    #############################                                   ",
"                                    #############################                                   ",
"                                    #############################                                   ",
"                              ..................     ............                                   ",
"                              ..................     ............                                   ",
"                              ..................     ............                                   ",
"                              ..................     ............                                   ",
"                              ..................     ............                                   ",
"                              ..................     ............                                   ",
"                              ......                 ..................                             ",
"                              ......                 ..................                             ",
"                              ......                 ..................                             ",
"                              ......                 ..................                             ",
"                              ......                 ..................                             ",
"                              ......                 ..................                             ",
"                                                                                                    ",
"                                                                                                    ",
"                                                                                                    "
};
